<svg xmlns="http://www.w3.org/2000/svg" viewBox="0 0 520 520" role="img" aria-label="Cypher Raven adversary concept"><defs><linearGradient id="g" x1="0" x2="1" y1="0" y2="1"><stop offset="0" stop-color="#111827"/><stop offset="1" stop-color="#020617"/></linearGradient></defs><rect width="520" height="520" rx="96" fill="#f8fafc"/><circle cx="260" cy="260" r="198" fill="url(#g)"/><path d="M106 300c76-17 101-95 155-134 63 57 102 105 153 134-71 14-115-2-154-42-45 42-93 56-154 42z" fill="#7c3aed" opacity=".9"/><path d="M234 163c45 23 80 55 109 100-59-12-108-5-149 22 11-46 23-84 40-122z" fill="#0f172a" stroke="#c4b5fd" stroke-width="8"/><circle cx="258" cy="221" r="10" fill="#f97316"/><path d="M277 222l44 12-46 16z" fill="#f97316"/><text x="260" y="390" text-anchor="middle" font-family="Arial, sans-serif" font-size="28" font-weight="900" fill="#fff">CYPHER RAVEN</text></svg>