<svg xmlns="http://www.w3.org/2000/svg" viewBox="0 0 520 520" role="img" aria-label="SOTEE owl knowledge assistant"><defs><linearGradient id="g" x1="0" x2="1" y1="0" y2="1"><stop offset="0" stop-color="#0ea5e9"/><stop offset="1" stop-color="#081f3a"/></linearGradient></defs><rect width="520" height="520" rx="96" fill="#f8fafc"/><circle cx="260" cy="260" r="198" fill="url(#g)"/><path d="M145 178c36-74 97-80 115-34 18-46 79-40 115 34 18 38 12 105-21 148-35 45-68 76-94 105-26-29-59-60-94-105-33-43-39-110-21-148z" fill="#020617" opacity=".72"/><circle cx="213" cy="234" r="48" fill="#fff"/><circle cx="307" cy="234" r="48" fill="#fff"/><circle cx="213" cy="234" r="18" fill="#0ea5e9"/><circle cx="307" cy="234" r="18" fill="#0ea5e9"/><path d="M260 258l-24 38h48z" fill="#f59e0b"/><path d="M190 346h140" stroke="#fff" stroke-width="14" stroke-linecap="round"/><text x="260" y="413" text-anchor="middle" font-family="Arial, sans-serif" font-size="32" font-weight="900" fill="#fff">SOTEE</text></svg>