<svg xmlns="http://www.w3.org/2000/svg" viewBox="0 0 220 220" role="img" aria-label="Operational / Online">
  <defs>
    <pattern id="grid" width="18" height="18" patternUnits="userSpaceOnUse"><path d="M18 0H0v18" fill="none" stroke="#e7edf5" stroke-width="1"/></pattern>
    <filter id="shadow" x="-20%" y="-20%" width="140%" height="140%"><feDropShadow dx="0" dy="8" stdDeviation="7" flood-color="#0f172a" flood-opacity=".18"/></filter>
  </defs>
  <rect x="10" y="10" width="200" height="200" rx="28" fill="#ffffff" filter="url(#shadow)"/>
  <rect x="20" y="20" width="180" height="180" rx="22" fill="url(#grid)" opacity=".65"/>
  <circle cx="110" cy="84" r="55" fill="#16a34a" opacity=".12"/>
  <circle cx="110" cy="84" r="43" fill="#16a34a"/>
  <path d="M36 79c20-20 52-20 72 0 M51 94c12-12 32-12 44 0 M66 109c4-4 12-4 16 0 M78 35a44 44 0 1044 44" fill="none" stroke="#fff" stroke-width="9" stroke-linecap="round" stroke-linejoin="round"/>
  <rect x="31" y="154" width="158" height="34" rx="17" fill="#07182d"/>
  <text x="110" y="176" font-family="Inter, Arial, sans-serif" font-weight="800" font-size="14" text-anchor="middle" fill="#ffffff">Operational/ Online</text>
</svg>